<?xml version="1.0" encoding="UTF-8" standalone="no"?>
<svg
   version="1.1"
   viewBox="0 0 360 66"
   id="svg219"
   width="360"
   height="66"
   xmlns="http://www.w3.org/2000/svg"
   xmlns:svg="http://www.w3.org/2000/svg">
  <!-- Generator: Adobe Illustrator 30.0.0, SVG Export Plug-In . SVG Version: 2.1.1 Build 123)  -->
  <defs
     id="defs184">
    <style
       id="style182">
      .st0 {
        isolation: isolate;
      }

      .st1 {
        mix-blend-mode: multiply;
      }

      .st2 {
        fill: #ff7778;
      }

      .st3 {
        fill: #fff;
      }

      .st4 {
        fill: #fffdfe;
      }
    </style>
  </defs>
  <g
     class="st1"
     id="g188"
     style="isolation:isolate;fill:#231f20;fill-opacity:1"
     transform="matrix(0.42750267,0,0,0.42543178,0,-0.50626381)">
    <path
       class="st4"
       d="m 47.89,1.19 v 109.2 c 0,24.84 -21.45,44.96 -47.89,44.96 V 46.15 C 0,21.32 21.45,1.19 47.89,1.19 Z"
       id="path186"
       style="fill:#231f20;fill-opacity:1" />
  </g>
  <g
     class="st1"
     id="g192"
     style="isolation:isolate;fill:#231f20;fill-opacity:1"
     transform="matrix(0.42750267,0,0,0.42543178,0,-0.50626381)">
    <path
       class="st4"
       d="m 100.14,155.36 c -26.45,0 -47.89,-20.13 -47.89,-44.96 V 1.19 c 26.45,0 47.89,20.13 47.89,44.96 v 109.2 0 z"
       id="path190"
       style="fill:#231f20;fill-opacity:1" />
  </g>
  <g
     class="st1"
     id="g196"
     style="isolation:isolate;fill:#231f20;fill-opacity:1"
     transform="matrix(0.42750267,0,0,0.42543178,0,-0.50626381)">
    <path
       class="st4"
       d="m 152.38,110.39 c 0,24.84 -21.44,44.96 -47.89,44.96 V 46.15 c 0,-24.84 21.44,-44.96 47.89,-44.96 z"
       id="path194"
       style="fill:#231f20;fill-opacity:1" />
  </g>
  <path
     class="st2"
     d="m 87.479873,65.588818 c -11.307447,0 -20.473106,-8.563942 -20.473106,-19.127415 V 0 c 11.307447,0 20.473106,8.5639419 20.473106,19.127413 v 46.457151 0 z"
     id="path198"
     style="isolation:isolate;stroke-width:0.426466" />
  <path
     class="st3"
     d="m 215.87175,51.898424 c 3.02244,2.841884 9.25543,5.679514 14.43249,5.679514 4.74955,0 7.01105,-1.642165 7.01105,-4.207521 0,-2.914207 -3.63378,-3.948005 -8.38761,-4.905229 -7.17777,-1.382654 -16.4332,-3.097142 -16.4332,-12.984177 0,-6.972827 6.13894,-13.060756 17.12148,-13.060756 7.088,0 12.70965,2.399435 16.77093,5.679515 l -4.32205,7.470581 c -2.50516,-2.658948 -7.27182,-4.815887 -12.35483,-4.815887 -3.9715,0 -6.56644,1.459231 -6.56644,3.871429 0,2.582371 3.28322,3.522575 7.95583,4.467034 7.17777,1.382653 16.77093,3.267316 16.77093,13.579782 0,7.65352 -6.4895,13.320272 -18.07054,13.320272 -7.27182,0 -14.26577,-2.416456 -18.68187,-6.453801 l 4.74956,-7.653519 v 0.01299 z"
     id="path200"
     style="isolation:isolate;fill:#000000;stroke-width:0.426466" />
  <path
     class="st3"
     d="m 282.23727,64.963433 v -4.296861 c -2.85572,3.356658 -7.77628,5.330663 -13.22694,5.330663 -6.66049,0 -14.52654,-4.467037 -14.52654,-13.762722 0,-9.295683 7.86605,-13.24369 14.52654,-13.24369 5.52761,0 10.46099,1.71449 13.22694,5.071147 v -5.756092 c 0,-4.20752 -3.63378,-6.972827 -9.16566,-6.972827 -4.49305,0 -8.64411,1.642166 -12.1881,4.905229 l -4.15533,-7.304664 c 5.10011,-4.467034 11.67082,-6.530378 18.23726,-6.530378 9.51622,0 18.23727,3.782088 18.23727,15.736722 v 26.823473 h -10.98255 0.013 z m 0,-15.128354 c -1.81689,-2.416451 -5.27111,-3.61617 -8.81084,-3.61617 -4.32205,0 -7.86604,2.322856 -7.86604,6.270866 0,3.948004 3.54399,6.104944 7.86604,6.104944 3.544,0 7.01105,-1.199715 8.81084,-3.616171 v -5.164741 0.01702 z"
     id="path202"
     style="isolation:isolate;fill:#000000;stroke-width:0.426466" />
  <path
     class="st3"
     d="m 301.75704,10.797459 c 0,-3.6161703 3.02244,-6.5303782 6.56644,-6.5303782 3.54399,0 6.56644,2.9312251 6.56644,6.5303782 0,3.599153 -2.93267,6.530377 -6.56644,6.530377 -3.63377,0 -6.56644,-2.931224 -6.56644,-6.530377 z m 1.11578,54.165974 V 23.437037 h 10.98254 v 41.526396 z"
     id="path204"
     style="isolation:isolate;fill:#000000;stroke-width:0.426466" />
  <path
     class="st3"
     d="m 343.48985,22.403238 c 8.55433,0 13.74848,3.692748 16.51015,7.564177 l -7.17777,6.623973 c -1.98789,-2.841885 -5.01033,-4.467034 -8.8151,-4.467034 -6.66049,0 -11.3331,4.815888 -11.3331,12.031211 0,7.215322 4.67261,12.120551 11.3331,12.120551 3.80477,0 6.82721,-1.714488 8.8151,-4.467033 L 360,58.433055 c -2.76594,3.871428 -7.95582,7.56418 -16.51015,7.56418 -12.87638,0 -22.13181,-9.02341 -22.13181,-21.84167 0,-12.81826 9.25543,-21.748073 22.13181,-21.748073 z"
     id="path206"
     style="isolation:isolate;fill:#000000;stroke-width:0.426466" />
  <path
     class="st3"
     d="M 149.35233,65.312289 V 38.595171 c 0,-3.871429 -1.72711,-6.623973 -6.23298,-6.623973 -3.89455,0 -7.088,2.582371 -8.64411,4.815888 V 64.810279 H 123.40292 V 38.595171 c 0,-3.871429 -1.72711,-6.623973 -6.23299,-6.623973 -3.80477,0 -7.01104,2.582371 -8.6441,4.905229 V 64.823041 H 97.560387 V 23.300899 h 10.982543 v 5.424255 c 1.72711,-2.49303 7.27182,-6.441037 13.65444,-6.441037 6.38261,0 10.03348,2.841884 11.59387,7.564177 2.42821,-3.782088 7.95582,-7.564177 14.35553,-7.564177 7.69933,0 12.28216,2.824867 12.28216,11.346265 v 31.213931 l -11.07232,0.484994 v -0.01702 z"
     id="path208"
     style="isolation:isolate;fill:#000000;stroke-width:0.426466" />
  <path
     class="st3"
     d="m 185.77984,23.330679 c 0,0 -11.22622,-0.484992 -16.77093,8.823455 l -1.98361,3.0546 v 18.727509 l 11.16636,-16.966221 0.21375,-0.289292 c 0.90203,-1.352875 3.30033,-3.522577 7.46848,-3.522577 6.10901,0 11.27324,5.30088 11.27324,11.571745 0,6.270866 -5.16423,11.665338 -11.27324,11.665338 0,0 -2.23157,0.0468 -4.58283,-1.229494 -1.86391,-1.033802 -3.8347,-2.705748 -5.45066,-5.058389 -0.16672,-0.212714 -0.48735,-0.212714 -0.62843,0 l -5.1172,7.59396 c -0.21375,0.336089 -0.21375,0.774285 0.047,1.110379 5.77556,7.547158 15.56537,7.185543 15.65515,7.185543 12.14107,0 22.30281,-9.767916 22.30281,-21.386458 0,-11.618542 -10.15746,-21.263081 -22.30281,-21.263081 z"
     id="path210"
     style="isolation:isolate;fill:#000000;stroke-width:0.426466" />
  <path
     class="st3"
     d="M 343.3274,13.392593 V 5.9815709 h -2.68472 V 4.2713351 h 7.32312 v 1.7102358 h -2.67189 v 7.4152761 h -1.96651 z"
     id="path212"
     style="isolation:isolate;fill:#000000;stroke-width:0.426466" />
  <path
     class="st3"
     d="M 357.61454,13.392593 V 6.823926 l -2.59494,6.568667 h -0.85073 l -2.58212,-6.568667 v 6.568667 h -1.95796 V 4.2670808 h 2.74029 l 2.23584,5.6922772 2.23583,-5.6922772 h 2.74885 v 9.1255122 h -1.97934 z"
     id="path214"
     style="isolation:isolate;fill:#000000;stroke-width:0.426466" />
</svg>
